<svg width="57" height="57" viewBox="0 0 57 57" fill="none" xmlns="http://www.w3.org/2000/svg">
<path fill-rule="evenodd" clip-rule="evenodd" d="M34.7911 39.3144C35.2275 39.3931 35.6698 39.4488 36.1166 39.4808C39.7342 39.7399 43.2859 38.415 45.85 35.85L53.35 28.35C58.0872 23.4453 58.0194 15.6489 53.1977 10.8273C48.3761 6.0056 40.5798 5.93785 35.675 10.675L31.375 14.95L29.1968 24.6834C28.7644 24.6059 28.3261 24.5509 27.8834 24.5192C24.2658 24.2601 20.7141 25.585 18.15 28.15L10.65 35.65C5.91286 40.5547 5.98061 48.3511 10.8023 53.1727C15.624 57.9944 23.4203 58.0622 28.325 53.325L32.6 49.05L34.7911 39.3144Z" fill="#4EB548" fill-opacity="0.15"/>
<path d="M22 29.5C24.1724 32.4042 27.4991 34.2218 31.1166 34.4808C34.7342 34.7399 38.2859 33.415 40.85 30.85L48.35 23.35C53.0872 18.4453 53.0194 10.6489 48.1977 5.82727C43.3761 1.0056 35.5797 0.937847 30.675 5.675L26.375 9.95" stroke="#03A84E" stroke-width="3" stroke-linecap="round" stroke-linejoin="round"/>
<path d="M32 24.5C29.8276 21.5958 26.5009 19.7782 22.8834 19.5192C19.2658 19.2601 15.7141 20.585 13.15 23.15L5.65001 30.65C0.912861 35.5547 0.980609 43.3511 5.80228 48.1727C10.624 52.9944 18.4203 53.0622 23.325 48.325L27.6 44.05" stroke="#03A84E" stroke-width="3" stroke-linecap="round" stroke-linejoin="round"/>
</svg>
